<?xml version="1.0" encoding="utf-8"?>
<!-- Generator: Adobe Illustrator 16.0.4, SVG Export Plug-In . SVG Version: 6.00 Build 0)  -->
<!DOCTYPE svg PUBLIC "-//W3C//DTD SVG 1.1//EN" "http://www.w3.org/Graphics/SVG/1.1/DTD/svg11.dtd">
<svg version="1.1" id="Layer_1" xmlns="http://www.w3.org/2000/svg" xmlns:xlink="http://www.w3.org/1999/xlink" x="0px" y="0px"
	 width="70px" height="70px" viewBox="0 0 70 70" enable-background="new 0 0 70 70" xml:space="preserve">
<g>
	<path fill="#FFFFFF" d="M48.059,48.064c0-0.738,0-1.488,0-2.242h8.115h0.746c1.24,0,2.242-1.004,2.242-2.241V12.938v-0.747
		c0-1.239-1.004-2.242-2.242-2.242H13.079c-1.239,0-2.242,1.004-2.242,2.242v0.747v30.643c0,1.238,1.003,2.241,2.242,2.241h0.747
		h30.577c0,0.755,0,1.507,0,2.242H41.29v0.746c0,0.413-0.335,0.747-0.747,0.747h-8.967c-0.415,0-0.748-0.335-0.748-0.747v-0.746
		H1.868v1.494c0,0,0,2.242,2.242,2.242h40.293c0,1.203,0,2.24,0,3.004c0,4.759,0.229,10.045,2.057,10.045
		c1.827,0,1.599-4.758,1.599-10.045c0-0.807,0-1.838,0-3.004H65.89c2.242,0,2.242-2.242,2.242-2.242v-1.494H48.059z M13.826,42.834
		V12.938h42.348v29.896h-8.115c0-2.086,0-4.02,0-5.477h0.675l-0.699-5.906c1.228-0.516,1.964-1.648,2.138-2.817
		c0.526-3.537-1.611-4.023-1.719-5.559c-0.055-0.78,0.277-1.674,0.928-2.449c0.668-0.802,1.521-1.63,1.521-1.63
		s-2.36-0.064-3.7,0.373c-2.374,0.775-4.604,3.009-5.18,5.492c-0.705,3.045-0.057,5.478,2.406,6.456l-0.715,6.043h0.691
		c0,1.459,0,3.396,0,5.477L13.826,42.834L13.826,42.834z"/>
</g>
</svg>
