<svg xmlns="http://www.w3.org/2000/svg" xmlns:xlink="http://www.w3.org/1999/xlink" version="1.1" id="Layer_1" x="0px" y="0px" viewBox="0 0 100 100" enable-background="new 0 0 100 100" xml:space="preserve" height="100px" width="100px">
<g>
	<g>
		<polygon points="91.263,91.455 84.763,91.455 84.763,88.455 88.263,88.455 88.263,84.955 91.263,84.955   "/>
	</g>
	<g>
		<path d="M69.063,91.455H57.85v-3h11.214V91.455z M42.15,91.455H30.937v-3H42.15V91.455z"/>
	</g>
	<g>
		<polygon points="15.237,91.455 8.737,91.455 8.737,84.955 11.737,84.955 11.737,88.455 15.237,88.455   "/>
	</g>
	<g>
		<path d="M11.737,69.169h-3V57.894h3V69.169z M11.737,42.107h-3V30.831h3V42.107z"/>
	</g>
	<g>
		<polygon points="11.737,15.045 8.737,15.045 8.737,8.545 15.237,8.545 15.237,11.545 11.737,11.545   "/>
	</g>
	<g>
		<path d="M69.063,11.545H57.85v-3h11.214V11.545z M42.15,11.545H30.937v-3H42.15V11.545z"/>
	</g>
	<g>
		<polygon points="91.263,15.045 88.263,15.045 88.263,11.545 84.763,11.545 84.763,8.545 91.263,8.545   "/>
	</g>
	<g>
		<path d="M91.263,69.169h-3V57.893h3V69.169z M91.263,42.107h-3V30.831h3V42.107z"/>
	</g>
</g>
</svg>